# xmcd
#
# Track frame offsets:
#	150
#	14845
#	29122
#	44162
#	57220
#	72495
#	89152
#	102887
#	118702
#	133537
#	148872
#	163507
#	179805
#	195077
#	210692
#	228812
#	241345
#	254942
#	269847
#	272737
#	275600
#	278472
#	279195
#	283010
#	285650
#	288722
#	292457
#	295100
#	297762
#	301785
#	306865
#	309382
#	311590
#	312705
#	314107
#	316612
#	317047
#	318915
#
# Disc length: 4269
#
# Revision: 1
# Processed by: cddbd v1.5.1PL0 Copyright (c) Steve Scherf et al.
# Submitted via: VisiTrax 2.9.5.180 - For more info visit www.synapsa.com
# Normalized: r0:DSETVAR1
#
DISCID=7810ab26
DTITLE=Various Artist - CDX 81 April 1994
DYEAR=1994
DGENRE=
TTITLE0=Restless Heart - Baby needs new shoes
TTITLE1=Asleep at the Wheel - Blues for Dixie
TTITLE2=Bellamy Brothers - Bubba
TTITLE3=Victoria Shaw - Cry wolf
TTITLE4=Mary Chapin Carpenter - I take my chances
TTITLE5=Mark Collie - It is no secret
TTITLE6=Becky Hobbs - Mama's green eyes (and daddy's wild hair)
TTITLE7=Charlie Major - Nobody gets too much love
TTITLE8=Mavericks - O what a thrill
TTITLE9=Bryan Austin - Radio active
TTITLE10=Eddy Raven - Rip rap road
TTITLE11=Dawn Sears - Runaway train
TTITLE12=Iris DeMent - The shores of Jordan
TTITLE13=Hal Ketchum - Tonight we just might fall in love again
TTITLE14=Ronnie McDowell - What's it gonna take
TTITLE15=Neal McCoy - Wink
TTITLE16=Bobbie Cryner - You could steal me
TTITLE17=Gene Watson - Your uncharted mind
TTITLE18=Lorrie Morgan - PSA Aids awareness
TTITLE19=Emmylou Harris - PSA Aids awareness
TTITLE20=Mark Chesnutt - PSA Aids awareness
TTITLE21=Bryan Austin - Interview
TTITLE22=Bryan Austin - Interview
TTITLE23=Bryan Austin - Interview
TTITLE24=Bryan Austin - Interview
TTITLE25=Bryan Austin - Interview
TTITLE26=Bryan Austin - Interview
TTITLE27=Bryan Austin - Interview
TTITLE28=Bryan Austin - Interview
TTITLE29=Bryan Austin - Interview
TTITLE30=Bryan Austin - Interview
TTITLE31=Bryan Austin - Interview
TTITLE32=Bryan Austin - Interview
TTITLE33=Bryan Austin - Interview
TTITLE34=Bryan Austin - Interview
TTITLE35=Bryan Austin - Interview
TTITLE36=Bryan Austin - Interview
TTITLE37=Bryan Austin - Interview
EXTD=
EXTT0=
EXTT1=
EXTT2=
EXTT3=
EXTT4=
EXTT5=
EXTT6=
EXTT7=
EXTT8=
EXTT9=
EXTT10=
EXTT11=
EXTT12=
EXTT13=
EXTT14=
EXTT15=
EXTT16=
EXTT17=
EXTT18=
EXTT19=
EXTT20=
EXTT21=
EXTT22=
EXTT23=
EXTT24=
EXTT25=
EXTT26=
EXTT27=
EXTT28=
EXTT29=
EXTT30=
EXTT31=
EXTT32=
EXTT33=
EXTT34=
EXTT35=
EXTT36=
EXTT37=
PLAYORDER=
